<svg width="21" height="20" viewBox="0 0 21 20" fill="none" xmlns="http://www.w3.org/2000/svg">
<g clip-path="url(#clip0_74_597)">
<path d="M16.3333 0H4.66667C3.562 0.00132321 2.50296 0.440735 1.72185 1.22185C0.940735 2.00296 0.501323 3.062 0.5 4.16667L0.5 15.8333C0.501323 16.938 0.940735 17.997 1.72185 18.7782C2.50296 19.5593 3.562 19.9987 4.66667 20H16.3333C17.438 19.9987 18.497 19.5593 19.2782 18.7782C20.0593 17.997 20.4987 16.938 20.5 15.8333V4.16667C20.4987 3.062 20.0593 2.00296 19.2782 1.22185C18.497 0.440735 17.438 0.00132321 16.3333 0ZM18.8333 15.8333C18.8333 16.4964 18.5699 17.1323 18.1011 17.6011C17.6323 18.0699 16.9964 18.3333 16.3333 18.3333H4.66667C4.00363 18.3333 3.36774 18.0699 2.8989 17.6011C2.43006 17.1323 2.16667 16.4964 2.16667 15.8333V4.16667C2.16667 3.50363 2.43006 2.86774 2.8989 2.3989C3.36774 1.93006 4.00363 1.66667 4.66667 1.66667H16.3333C16.9964 1.66667 17.6323 1.93006 18.1011 2.3989C18.5699 2.86774 18.8333 3.50363 18.8333 4.16667V15.8333Z" fill="#0078FF"/>
<path d="M8.27736 13.266L5.01152 10.0002C4.85525 9.84394 4.64333 9.75617 4.42236 9.75617C4.20139 9.75617 3.98946 9.84394 3.83319 10.0002C3.67697 10.1564 3.5892 10.3684 3.5892 10.5893C3.5892 10.8103 3.67697 11.0222 3.83319 11.1785L7.09902 14.4443C7.2538 14.5992 7.43756 14.722 7.63981 14.8058C7.84207 14.8896 8.05885 14.9327 8.27777 14.9327C8.4967 14.9327 8.71348 14.8896 8.91574 14.8058C9.11799 14.722 9.30175 14.5992 9.45652 14.4443L17.1665 6.73433C17.3228 6.57806 17.4105 6.36614 17.4105 6.14517C17.4105 5.9242 17.3228 5.71227 17.1665 5.556C17.0103 5.39977 16.7983 5.31201 16.5774 5.31201C16.3564 5.31201 16.1445 5.39977 15.9882 5.556L8.27736 13.266Z" fill="#0078FF"/>
</g>
<defs>
<clipPath id="clip0_74_597">
<rect width="20" height="20" fill="white" transform="translate(0.5)"/>
</clipPath>
</defs>
</svg>
